# xmcd
#
# Track frame offsets: 
#        150
#        14464
#        28552
#        43229
#        58006
#        68481
#        82978
#        97676
#        112717
#        125958
#        134148
#        149654
#
# Disc length: 2273 seconds
#
# Revision: 0
# Processed by: cddbd v1.5.2PL0 Copyright (c) Steve Scherf et al.
# Submitted via: ExactAudioCopy v1.0b3
#
DISCID=a608df0c
DTITLE=Needhams - A Family Christmas
DYEAR=2004
DGENRE=Christmas
TTITLE0=Hark! The Herald Angels Sing
TTITLE1=Away in a Manger
TTITLE2=O Come All Ye Faithful
TTITLE3=Mary Did You Know
TTITLE4=Come on Ring Those Bells
TTITLE5=The Christmas Song
TTITLE6=Silver Bells
TTITLE7=O Come, O Come Emmanuel
TTITLE8=Do You Hear What I Hear
TTITLE9=God Rest Ye Merry Gentlemen
TTITLE10=Silent Night
TTITLE11=Don't Save It All for Christmas
EXTD=
EXTT0=
EXTT1=
EXTT2=
EXTT3=
EXTT4=
EXTT5=
EXTT6=
EXTT7=
EXTT8=
EXTT9=
EXTT10=
EXTT11=
PLAYORDER=
